<mxfile host="app.diagrams.net" modified="2023-10-26T19:11:18.730Z" agent="Mozilla/5.0 (Windows NT 10.0; Win64; x64) AppleWebKit/537.36 (KHTML, like Gecko) Chrome/118.0.0.0 Safari/537.36" etag="yQhxYdIe30BTCsYSWJQC" version="22.0.8" type="google" pages="5">
  <diagram name="Casos de uso" id="JuRej-Z4gwztf3k0NoS7">
    <mxGraphModel grid="1" page="1" gridSize="10" guides="1" tooltips="1" connect="1" arrows="1" fold="1" pageScale="1" pageWidth="827" pageHeight="1169" math="0" shadow="0">
      <root>
        <mxCell id="0" />
        <mxCell id="1" parent="0" />
        <mxCell id="KlnW-i2jMCM9cxs2GAOI-1" value="" style="rounded=0;whiteSpace=wrap;html=1;" vertex="1" parent="1">
          <mxGeometry x="200" y="60" width="410" height="730" as="geometry" />
        </mxCell>
        <mxCell id="KlnW-i2jMCM9cxs2GAOI-13" style="edgeStyle=orthogonalEdgeStyle;rounded=0;orthogonalLoop=1;jettySize=auto;html=1;exitX=1;exitY=0.5;exitDx=0;exitDy=0;entryX=0;entryY=0.5;entryDx=0;entryDy=0;" edge="1" parent="1" source="KlnW-i2jMCM9cxs2GAOI-2" target="KlnW-i2jMCM9cxs2GAOI-3">
          <mxGeometry relative="1" as="geometry">
            <Array as="points">
              <mxPoint x="380" y="135" />
            </Array>
          </mxGeometry>
        </mxCell>
        <mxCell id="KlnW-i2jMCM9cxs2GAOI-2" value="Simular tanda" style="ellipse;whiteSpace=wrap;html=1;" vertex="1" parent="1">
          <mxGeometry x="260" y="100" width="120" height="80" as="geometry" />
        </mxCell>
        <mxCell id="KlnW-i2jMCM9cxs2GAOI-3" value="leer datos de la tanda" style="ellipse;whiteSpace=wrap;html=1;" vertex="1" parent="1">
          <mxGeometry x="440" y="100" width="120" height="70" as="geometry" />
        </mxCell>
        <mxCell id="KlnW-i2jMCM9cxs2GAOI-4" value="Actor" style="shape=umlActor;verticalLabelPosition=bottom;verticalAlign=top;html=1;outlineConnect=0;" vertex="1" parent="1">
          <mxGeometry x="110" y="150" width="30" height="60" as="geometry" />
        </mxCell>
        <mxCell id="KlnW-i2jMCM9cxs2GAOI-6" value="SISTEMA" style="text;html=1;align=center;verticalAlign=middle;resizable=0;points=[];autosize=1;strokeColor=none;fillColor=none;" vertex="1" parent="1">
          <mxGeometry x="365" y="20" width="80" height="30" as="geometry" />
        </mxCell>
        <mxCell id="KlnW-i2jMCM9cxs2GAOI-7" value="Elegir tamaño de la&amp;nbsp;&lt;br&gt;mp" style="ellipse;whiteSpace=wrap;html=1;" vertex="1" parent="1">
          <mxGeometry x="260" y="230" width="120" height="80" as="geometry" />
        </mxCell>
        <mxCell id="KlnW-i2jMCM9cxs2GAOI-8" value="Elegir tiempo de selección de partición" style="ellipse;whiteSpace=wrap;html=1;" vertex="1" parent="1">
          <mxGeometry x="440" y="230" width="120" height="80" as="geometry" />
        </mxCell>
        <mxCell id="KlnW-i2jMCM9cxs2GAOI-9" value="Elegir tiempo de carga promedio" style="ellipse;whiteSpace=wrap;html=1;" vertex="1" parent="1">
          <mxGeometry x="260" y="350" width="120" height="80" as="geometry" />
        </mxCell>
        <mxCell id="KlnW-i2jMCM9cxs2GAOI-10" value="Elegir tiempo de liberación de partición" style="ellipse;whiteSpace=wrap;html=1;" vertex="1" parent="1">
          <mxGeometry x="430" y="340" width="120" height="80" as="geometry" />
        </mxCell>
        <mxCell id="KlnW-i2jMCM9cxs2GAOI-11" value="Elegir estrategia de asignación de particiones" style="ellipse;whiteSpace=wrap;html=1;" vertex="1" parent="1">
          <mxGeometry x="245" y="470" width="120" height="80" as="geometry" />
        </mxCell>
        <mxCell id="KlnW-i2jMCM9cxs2GAOI-12" value="Mostrar archivo de salida de los eventos" style="ellipse;whiteSpace=wrap;html=1;" vertex="1" parent="1">
          <mxGeometry x="440" y="470" width="120" height="80" as="geometry" />
        </mxCell>
        <mxCell id="KlnW-i2jMCM9cxs2GAOI-15" style="edgeStyle=orthogonalEdgeStyle;rounded=0;orthogonalLoop=1;jettySize=auto;html=1;entryX=0.5;entryY=0;entryDx=0;entryDy=0;" edge="1" parent="1" target="KlnW-i2jMCM9cxs2GAOI-7">
          <mxGeometry relative="1" as="geometry">
            <mxPoint x="480" y="170" as="sourcePoint" />
            <mxPoint x="530" y="205" as="targetPoint" />
            <Array as="points">
              <mxPoint x="480" y="190" />
              <mxPoint x="320" y="190" />
            </Array>
          </mxGeometry>
        </mxCell>
        <mxCell id="KlnW-i2jMCM9cxs2GAOI-17" style="edgeStyle=orthogonalEdgeStyle;rounded=0;orthogonalLoop=1;jettySize=auto;html=1;" edge="1" parent="1">
          <mxGeometry relative="1" as="geometry">
            <mxPoint x="400" y="269.5" as="sourcePoint" />
            <mxPoint x="430" y="269.5" as="targetPoint" />
            <Array as="points">
              <mxPoint x="380" y="269.5" />
            </Array>
          </mxGeometry>
        </mxCell>
        <mxCell id="KlnW-i2jMCM9cxs2GAOI-18" style="edgeStyle=orthogonalEdgeStyle;rounded=0;orthogonalLoop=1;jettySize=auto;html=1;" edge="1" parent="1">
          <mxGeometry relative="1" as="geometry">
            <mxPoint x="494" y="310" as="sourcePoint" />
            <mxPoint x="320" y="350" as="targetPoint" />
            <Array as="points">
              <mxPoint x="494" y="330" />
              <mxPoint x="320" y="330" />
              <mxPoint x="320" y="349" />
            </Array>
          </mxGeometry>
        </mxCell>
        <mxCell id="KlnW-i2jMCM9cxs2GAOI-19" style="edgeStyle=orthogonalEdgeStyle;rounded=0;orthogonalLoop=1;jettySize=auto;html=1;" edge="1" parent="1">
          <mxGeometry relative="1" as="geometry">
            <mxPoint x="400" y="379.58" as="sourcePoint" />
            <mxPoint x="430" y="379.58" as="targetPoint" />
            <Array as="points">
              <mxPoint x="380" y="379.58" />
            </Array>
          </mxGeometry>
        </mxCell>
        <mxCell id="KlnW-i2jMCM9cxs2GAOI-20" style="edgeStyle=orthogonalEdgeStyle;rounded=0;orthogonalLoop=1;jettySize=auto;html=1;" edge="1" parent="1">
          <mxGeometry relative="1" as="geometry">
            <mxPoint x="400" y="509.58" as="sourcePoint" />
            <mxPoint x="430" y="509.58" as="targetPoint" />
            <Array as="points">
              <mxPoint x="380" y="509.58" />
            </Array>
          </mxGeometry>
        </mxCell>
        <mxCell id="KlnW-i2jMCM9cxs2GAOI-21" style="edgeStyle=orthogonalEdgeStyle;rounded=0;orthogonalLoop=1;jettySize=auto;html=1;exitX=0.428;exitY=1.044;exitDx=0;exitDy=0;exitPerimeter=0;" edge="1" parent="1" source="KlnW-i2jMCM9cxs2GAOI-10">
          <mxGeometry relative="1" as="geometry">
            <mxPoint x="484" y="430" as="sourcePoint" />
            <mxPoint x="310" y="470" as="targetPoint" />
            <Array as="points">
              <mxPoint x="481" y="450" />
              <mxPoint x="310" y="450" />
            </Array>
          </mxGeometry>
        </mxCell>
        <mxCell id="KlnW-i2jMCM9cxs2GAOI-22" value="Mostrar indicadores de la tanda" style="ellipse;whiteSpace=wrap;html=1;" vertex="1" parent="1">
          <mxGeometry x="440" y="600" width="120" height="80" as="geometry" />
        </mxCell>
        <mxCell id="KlnW-i2jMCM9cxs2GAOI-23" style="edgeStyle=orthogonalEdgeStyle;rounded=0;orthogonalLoop=1;jettySize=auto;html=1;exitX=0.5;exitY=1;exitDx=0;exitDy=0;entryX=0.5;entryY=0;entryDx=0;entryDy=0;" edge="1" parent="1" source="KlnW-i2jMCM9cxs2GAOI-12" target="KlnW-i2jMCM9cxs2GAOI-22">
          <mxGeometry relative="1" as="geometry">
            <mxPoint x="495" y="585.01" as="sourcePoint" />
            <mxPoint x="480" y="585" as="targetPoint" />
            <Array as="points">
              <mxPoint x="500" y="570" />
              <mxPoint x="500" y="570" />
            </Array>
          </mxGeometry>
        </mxCell>
      </root>
    </mxGraphModel>
  </diagram>
  <diagram id="mVL5HQIOVjTdGULSMDOA" name="Diagrama de clases">
    <mxGraphModel grid="1" page="1" gridSize="10" guides="1" tooltips="1" connect="1" arrows="1" fold="1" pageScale="1" pageWidth="827" pageHeight="1169" math="0" shadow="0">
      <root>
        <mxCell id="0" />
        <mxCell id="1" parent="0" />
        <mxCell id="sY6igfFgn6PVSlsK0iIA-1" value="Trabajo" style="swimlane;fontStyle=0;childLayout=stackLayout;horizontal=1;startSize=20;fillColor=none;horizontalStack=0;resizeParent=1;resizeParentMax=0;resizeLast=0;collapsible=1;marginBottom=0;whiteSpace=wrap;html=1;" vertex="1" parent="1">
          <mxGeometry x="90" y="260" width="170" height="156" as="geometry" />
        </mxCell>
        <mxCell id="sY6igfFgn6PVSlsK0iIA-2" value="+ id: int" style="text;strokeColor=none;fillColor=none;align=left;verticalAlign=top;spacingLeft=4;spacingRight=4;overflow=hidden;rotatable=0;points=[[0,0.5],[1,0.5]];portConstraint=eastwest;whiteSpace=wrap;html=1;" vertex="1" parent="sY6igfFgn6PVSlsK0iIA-1">
          <mxGeometry y="20" width="170" height="26" as="geometry" />
        </mxCell>
        <mxCell id="sY6igfFgn6PVSlsK0iIA-3" value="+ nombre: string" style="text;strokeColor=none;fillColor=none;align=left;verticalAlign=top;spacingLeft=4;spacingRight=4;overflow=hidden;rotatable=0;points=[[0,0.5],[1,0.5]];portConstraint=eastwest;whiteSpace=wrap;html=1;" vertex="1" parent="sY6igfFgn6PVSlsK0iIA-1">
          <mxGeometry y="46" width="170" height="24" as="geometry" />
        </mxCell>
        <mxCell id="sY6igfFgn6PVSlsK0iIA-4" value="+ tamaño: int&lt;br&gt;&lt;br&gt;" style="text;strokeColor=none;fillColor=none;align=left;verticalAlign=top;spacingLeft=4;spacingRight=4;overflow=hidden;rotatable=0;points=[[0,0.5],[1,0.5]];portConstraint=eastwest;whiteSpace=wrap;html=1;" vertex="1" parent="sY6igfFgn6PVSlsK0iIA-1">
          <mxGeometry y="70" width="170" height="30" as="geometry" />
        </mxCell>
        <mxCell id="sY6igfFgn6PVSlsK0iIA-7" value="+ duración: float" style="text;strokeColor=none;fillColor=none;align=left;verticalAlign=top;spacingLeft=4;spacingRight=4;overflow=hidden;rotatable=0;points=[[0,0.5],[1,0.5]];portConstraint=eastwest;whiteSpace=wrap;html=1;" vertex="1" parent="sY6igfFgn6PVSlsK0iIA-1">
          <mxGeometry y="100" width="170" height="30" as="geometry" />
        </mxCell>
        <mxCell id="sY6igfFgn6PVSlsK0iIA-8" value="+ instanteArribo: int" style="text;strokeColor=none;fillColor=none;align=left;verticalAlign=top;spacingLeft=4;spacingRight=4;overflow=hidden;rotatable=0;points=[[0,0.5],[1,0.5]];portConstraint=eastwest;whiteSpace=wrap;html=1;" vertex="1" parent="sY6igfFgn6PVSlsK0iIA-1">
          <mxGeometry y="130" width="170" height="26" as="geometry" />
        </mxCell>
        <mxCell id="sY6igfFgn6PVSlsK0iIA-9" value="Particion" style="swimlane;fontStyle=0;childLayout=stackLayout;horizontal=1;startSize=20;fillColor=none;horizontalStack=0;resizeParent=1;resizeParentMax=0;resizeLast=0;collapsible=1;marginBottom=0;whiteSpace=wrap;html=1;" vertex="1" parent="1">
          <mxGeometry x="420" y="300" width="160" height="122" as="geometry">
            <mxRectangle x="420" y="280" width="90" height="30" as="alternateBounds" />
          </mxGeometry>
        </mxCell>
        <mxCell id="sY6igfFgn6PVSlsK0iIA-10" value="+ id: int" style="text;strokeColor=none;fillColor=none;align=left;verticalAlign=top;spacingLeft=4;spacingRight=4;overflow=hidden;rotatable=0;points=[[0,0.5],[1,0.5]];portConstraint=eastwest;whiteSpace=wrap;html=1;" vertex="1" parent="sY6igfFgn6PVSlsK0iIA-9">
          <mxGeometry y="20" width="160" height="26" as="geometry" />
        </mxCell>
        <mxCell id="sY6igfFgn6PVSlsK0iIA-11" value="+ estado: boolean" style="text;strokeColor=none;fillColor=none;align=left;verticalAlign=top;spacingLeft=4;spacingRight=4;overflow=hidden;rotatable=0;points=[[0,0.5],[1,0.5]];portConstraint=eastwest;whiteSpace=wrap;html=1;" vertex="1" parent="sY6igfFgn6PVSlsK0iIA-9">
          <mxGeometry y="46" width="160" height="24" as="geometry" />
        </mxCell>
        <mxCell id="VjbkajfjoeGvCS7YRQG--1" value="+ tiempoFinalizacion: int" style="text;strokeColor=none;fillColor=none;align=left;verticalAlign=top;spacingLeft=4;spacingRight=4;overflow=hidden;rotatable=0;points=[[0,0.5],[1,0.5]];portConstraint=eastwest;whiteSpace=wrap;html=1;" vertex="1" parent="sY6igfFgn6PVSlsK0iIA-9">
          <mxGeometry y="70" width="160" height="26" as="geometry" />
        </mxCell>
        <mxCell id="TwySp44pyHWUW9PeYFyF-1" value="+ tamaño: int" style="text;strokeColor=none;fillColor=none;align=left;verticalAlign=top;spacingLeft=4;spacingRight=4;overflow=hidden;rotatable=0;points=[[0,0.5],[1,0.5]];portConstraint=eastwest;whiteSpace=wrap;html=1;" vertex="1" parent="sY6igfFgn6PVSlsK0iIA-9">
          <mxGeometry y="96" width="160" height="26" as="geometry" />
        </mxCell>
        <mxCell id="sY6igfFgn6PVSlsK0iIA-16" value="" style="endArrow=none;html=1;rounded=0;entryX=-0.012;entryY=0.808;entryDx=0;entryDy=0;entryPerimeter=0;exitX=1.013;exitY=0.3;exitDx=0;exitDy=0;exitPerimeter=0;" edge="1" parent="1" source="sY6igfFgn6PVSlsK0iIA-4" target="sY6igfFgn6PVSlsK0iIA-10">
          <mxGeometry width="50" height="50" relative="1" as="geometry">
            <mxPoint x="240" y="350" as="sourcePoint" />
            <mxPoint x="290" y="300" as="targetPoint" />
          </mxGeometry>
        </mxCell>
        <mxCell id="UEDJ3NP4FgBGOApMBCLC-1" value="simulador" style="swimlane;fontStyle=1;align=center;verticalAlign=top;childLayout=stackLayout;horizontal=1;startSize=26;horizontalStack=0;resizeParent=1;resizeParentMax=0;resizeLast=0;collapsible=1;marginBottom=0;whiteSpace=wrap;html=1;" vertex="1" parent="1">
          <mxGeometry x="150" y="510" width="190" height="86" as="geometry" />
        </mxCell>
        <mxCell id="UEDJ3NP4FgBGOApMBCLC-3" value="" style="line;strokeWidth=1;fillColor=none;align=left;verticalAlign=middle;spacingTop=-1;spacingLeft=3;spacingRight=3;rotatable=0;labelPosition=right;points=[];portConstraint=eastwest;strokeColor=inherit;" vertex="1" parent="UEDJ3NP4FgBGOApMBCLC-1">
          <mxGeometry y="26" width="190" height="8" as="geometry" />
        </mxCell>
        <mxCell id="UEDJ3NP4FgBGOApMBCLC-4" value="+ unificarParticiones(type): type" style="text;strokeColor=none;fillColor=none;align=left;verticalAlign=top;spacingLeft=4;spacingRight=4;overflow=hidden;rotatable=0;points=[[0,0.5],[1,0.5]];portConstraint=eastwest;whiteSpace=wrap;html=1;" vertex="1" parent="UEDJ3NP4FgBGOApMBCLC-1">
          <mxGeometry y="34" width="190" height="26" as="geometry" />
        </mxCell>
        <mxCell id="tAnu1UTWZPlunKIlvdsk-1" value="+ unificarParticiones(type): type" style="text;strokeColor=none;fillColor=none;align=left;verticalAlign=top;spacingLeft=4;spacingRight=4;overflow=hidden;rotatable=0;points=[[0,0.5],[1,0.5]];portConstraint=eastwest;whiteSpace=wrap;html=1;" vertex="1" parent="UEDJ3NP4FgBGOApMBCLC-1">
          <mxGeometry y="60" width="190" height="26" as="geometry" />
        </mxCell>
        <mxCell id="8smD2bwkKCw7fBRO9F4j-1" value="tabla de particiones" style="swimlane;fontStyle=0;childLayout=stackLayout;horizontal=1;startSize=20;fillColor=none;horizontalStack=0;resizeParent=1;resizeParentMax=0;resizeLast=0;collapsible=1;marginBottom=0;whiteSpace=wrap;html=1;" vertex="1" parent="1">
          <mxGeometry x="440" y="500" width="160" height="46" as="geometry">
            <mxRectangle x="420" y="280" width="90" height="30" as="alternateBounds" />
          </mxGeometry>
        </mxCell>
      </root>
    </mxGraphModel>
  </diagram>
  <diagram id="1-sf3YuyT5rFivov51Bb" name="Diagrama de flujo padre">
    <mxGraphModel grid="1" page="1" gridSize="10" guides="1" tooltips="1" connect="1" arrows="1" fold="1" pageScale="1" pageWidth="827" pageHeight="1169" math="0" shadow="0">
      <root>
        <mxCell id="0" />
        <mxCell id="1" parent="0" />
        <mxCell id="awEpsJLDDM5TZzW0thUI-1" value="Simulador" style="whiteSpace=wrap;html=1;" vertex="1" parent="1">
          <mxGeometry x="230" y="150" width="120" height="60" as="geometry" />
        </mxCell>
        <mxCell id="awEpsJLDDM5TZzW0thUI-2" value="" style="rounded=0;html=1;jettySize=auto;orthogonalLoop=1;fontSize=11;endArrow=block;endFill=0;endSize=8;strokeWidth=1;shadow=0;labelBackgroundColor=none;edgeStyle=orthogonalEdgeStyle;" edge="1" parent="1" source="awEpsJLDDM5TZzW0thUI-3">
          <mxGeometry relative="1" as="geometry">
            <mxPoint x="290" y="320" as="targetPoint" />
          </mxGeometry>
        </mxCell>
        <mxCell id="awEpsJLDDM5TZzW0thUI-3" value="Inicio de simulacion" style="rounded=1;whiteSpace=wrap;html=1;fontSize=12;glass=0;strokeWidth=1;shadow=0;" vertex="1" parent="1">
          <mxGeometry x="230" y="230" width="120" height="40" as="geometry" />
        </mxCell>
        <mxCell id="awEpsJLDDM5TZzW0thUI-7" value="Leer datos de entrada" style="rounded=1;whiteSpace=wrap;html=1;fontSize=12;glass=0;strokeWidth=1;shadow=0;" vertex="1" parent="1">
          <mxGeometry x="230" y="330" width="120" height="40" as="geometry" />
        </mxCell>
        <mxCell id="awEpsJLDDM5TZzW0thUI-11" value="Elegir tiempo de selección de partición" style="rounded=1;whiteSpace=wrap;html=1;fontSize=12;glass=0;strokeWidth=1;shadow=0;" vertex="1" parent="1">
          <mxGeometry x="230" y="530" width="120" height="40" as="geometry" />
        </mxCell>
        <mxCell id="awEpsJLDDM5TZzW0thUI-12" value="Elegir tamaño de la mp&lt;br&gt;" style="rounded=1;whiteSpace=wrap;html=1;fontSize=12;glass=0;strokeWidth=1;shadow=0;" vertex="1" parent="1">
          <mxGeometry x="230" y="430" width="120" height="40" as="geometry" />
        </mxCell>
        <mxCell id="AIYoX7Q6_l8_5rwHORFR-1" value="" style="strokeWidth=2;html=1;shape=mxgraph.flowchart.database;whiteSpace=wrap;" vertex="1" parent="1">
          <mxGeometry x="110" y="310" width="60" height="60" as="geometry" />
        </mxCell>
        <mxCell id="AIYoX7Q6_l8_5rwHORFR-2" style="edgeStyle=orthogonalEdgeStyle;rounded=0;orthogonalLoop=1;jettySize=auto;html=1;exitX=0;exitY=0.5;exitDx=0;exitDy=0;entryX=1;entryY=0.5;entryDx=0;entryDy=0;entryPerimeter=0;" edge="1" parent="1" source="awEpsJLDDM5TZzW0thUI-7" target="AIYoX7Q6_l8_5rwHORFR-1">
          <mxGeometry relative="1" as="geometry">
            <Array as="points">
              <mxPoint x="230" y="340" />
            </Array>
          </mxGeometry>
        </mxCell>
        <mxCell id="AIYoX7Q6_l8_5rwHORFR-3" value="" style="rounded=0;html=1;jettySize=auto;orthogonalLoop=1;fontSize=11;endArrow=block;endFill=0;endSize=8;strokeWidth=1;shadow=0;labelBackgroundColor=none;edgeStyle=orthogonalEdgeStyle;" edge="1" parent="1">
          <mxGeometry relative="1" as="geometry">
            <mxPoint x="289.5" y="380" as="sourcePoint" />
            <mxPoint x="289.5" y="430" as="targetPoint" />
          </mxGeometry>
        </mxCell>
        <mxCell id="HCoO094OWK_n6Hc1VKs_-1" value="" style="rounded=0;html=1;jettySize=auto;orthogonalLoop=1;fontSize=11;endArrow=block;endFill=0;endSize=8;strokeWidth=1;shadow=0;labelBackgroundColor=none;edgeStyle=orthogonalEdgeStyle;" edge="1" parent="1">
          <mxGeometry relative="1" as="geometry">
            <mxPoint x="289.5" y="480" as="sourcePoint" />
            <mxPoint x="289.5" y="530" as="targetPoint" />
          </mxGeometry>
        </mxCell>
        <mxCell id="yFbG7h15xct_Q4mS61MP-1" value="Elegir tiempo de carga promedio" style="rounded=1;whiteSpace=wrap;html=1;fontSize=12;glass=0;strokeWidth=1;shadow=0;" vertex="1" parent="1">
          <mxGeometry x="230" y="620" width="120" height="40" as="geometry" />
        </mxCell>
        <mxCell id="yFbG7h15xct_Q4mS61MP-2" value="Elegir tiempo de liberación de partición" style="rounded=1;whiteSpace=wrap;html=1;fontSize=12;glass=0;strokeWidth=1;shadow=0;" vertex="1" parent="1">
          <mxGeometry x="230" y="710" width="120" height="40" as="geometry" />
        </mxCell>
        <mxCell id="yFbG7h15xct_Q4mS61MP-3" value="Elegir estrategia de asignación de particiones" style="rounded=1;whiteSpace=wrap;html=1;fontSize=12;glass=0;strokeWidth=1;shadow=0;" vertex="1" parent="1">
          <mxGeometry x="230" y="800" width="120" height="40" as="geometry" />
        </mxCell>
        <mxCell id="tOGjaiGqjiM_uzkv7Yna-1" value="" style="rounded=0;html=1;jettySize=auto;orthogonalLoop=1;fontSize=11;endArrow=block;endFill=0;endSize=8;strokeWidth=1;shadow=0;labelBackgroundColor=none;edgeStyle=orthogonalEdgeStyle;" edge="1" parent="1">
          <mxGeometry relative="1" as="geometry">
            <mxPoint x="289.5" y="570" as="sourcePoint" />
            <mxPoint x="289.5" y="620" as="targetPoint" />
          </mxGeometry>
        </mxCell>
        <mxCell id="tOGjaiGqjiM_uzkv7Yna-3" value="" style="rounded=0;html=1;jettySize=auto;orthogonalLoop=1;fontSize=11;endArrow=block;endFill=0;endSize=8;strokeWidth=1;shadow=0;labelBackgroundColor=none;edgeStyle=orthogonalEdgeStyle;" edge="1" parent="1">
          <mxGeometry relative="1" as="geometry">
            <mxPoint x="289.5" y="660" as="sourcePoint" />
            <mxPoint x="289.5" y="710" as="targetPoint" />
          </mxGeometry>
        </mxCell>
        <mxCell id="tOGjaiGqjiM_uzkv7Yna-4" value="" style="rounded=0;html=1;jettySize=auto;orthogonalLoop=1;fontSize=11;endArrow=block;endFill=0;endSize=8;strokeWidth=1;shadow=0;labelBackgroundColor=none;edgeStyle=orthogonalEdgeStyle;" edge="1" parent="1">
          <mxGeometry relative="1" as="geometry">
            <mxPoint x="289.5" y="750" as="sourcePoint" />
            <mxPoint x="289.5" y="800" as="targetPoint" />
          </mxGeometry>
        </mxCell>
      </root>
    </mxGraphModel>
  </diagram>
  <diagram name="Diagrama de flujo Firs fit" id="-iaWqcQaK1WAcWEZUBZF">
    <mxGraphModel grid="1" page="1" gridSize="10" guides="1" tooltips="1" connect="1" arrows="1" fold="1" pageScale="1" pageWidth="827" pageHeight="1169" math="0" shadow="0">
      <root>
        <mxCell id="rR85FR2aN-hJMiAtwUTk-0" />
        <mxCell id="rR85FR2aN-hJMiAtwUTk-1" parent="rR85FR2aN-hJMiAtwUTk-0" />
        <mxCell id="kEAaXZ3v0n-VEhTMAsTf-6" value="" style="rounded=0;html=1;jettySize=auto;orthogonalLoop=1;fontSize=11;endArrow=block;endFill=0;endSize=8;strokeWidth=1;shadow=0;labelBackgroundColor=none;edgeStyle=orthogonalEdgeStyle;" edge="1" parent="rR85FR2aN-hJMiAtwUTk-1">
          <mxGeometry relative="1" as="geometry">
            <mxPoint x="294.66" y="170" as="sourcePoint" />
            <mxPoint x="294.66" y="210" as="targetPoint" />
            <Array as="points">
              <mxPoint x="294.66" y="180" />
              <mxPoint x="294.66" y="180" />
            </Array>
          </mxGeometry>
        </mxCell>
        <mxCell id="rR85FR2aN-hJMiAtwUTk-4" value="Mientras halla trabajos" style="rounded=1;whiteSpace=wrap;html=1;fontSize=12;glass=0;strokeWidth=1;shadow=0;" vertex="1" parent="rR85FR2aN-hJMiAtwUTk-1">
          <mxGeometry x="238.5" y="-50" width="120" height="40" as="geometry" />
        </mxCell>
        <mxCell id="rR85FR2aN-hJMiAtwUTk-6" value="Actualizar tabla de particiones" style="rounded=1;whiteSpace=wrap;html=1;fontSize=12;glass=0;strokeWidth=1;shadow=0;" vertex="1" parent="rR85FR2aN-hJMiAtwUTk-1">
          <mxGeometry x="690" y="500" width="120" height="40" as="geometry" />
        </mxCell>
        <mxCell id="rR85FR2aN-hJMiAtwUTk-11" value="" style="rounded=0;html=1;jettySize=auto;orthogonalLoop=1;fontSize=11;endArrow=block;endFill=0;endSize=8;strokeWidth=1;shadow=0;labelBackgroundColor=none;edgeStyle=orthogonalEdgeStyle;exitX=0;exitY=0.5;exitDx=0;exitDy=0;exitPerimeter=0;" edge="1" parent="rR85FR2aN-hJMiAtwUTk-1" source="NFGD1fv55AR-VZEpnrtZ-0">
          <mxGeometry relative="1" as="geometry">
            <mxPoint x="180" y="340" as="sourcePoint" />
            <mxPoint x="199" y="420" as="targetPoint" />
          </mxGeometry>
        </mxCell>
        <mxCell id="NFGD1fv55AR-VZEpnrtZ-0" value="¿Memoria disponible?" style="strokeWidth=2;html=1;shape=mxgraph.flowchart.decision;whiteSpace=wrap;" vertex="1" parent="rR85FR2aN-hJMiAtwUTk-1">
          <mxGeometry x="238.5" y="320" width="103" height="80" as="geometry" />
        </mxCell>
        <mxCell id="NFGD1fv55AR-VZEpnrtZ-1" value="Si" style="text;html=1;align=center;verticalAlign=middle;resizable=0;points=[];autosize=1;strokeColor=none;fillColor=none;" vertex="1" parent="rR85FR2aN-hJMiAtwUTk-1">
          <mxGeometry x="370" y="338" width="30" height="30" as="geometry" />
        </mxCell>
        <mxCell id="NFGD1fv55AR-VZEpnrtZ-3" value="" style="rounded=0;html=1;jettySize=auto;orthogonalLoop=1;fontSize=11;endArrow=block;endFill=0;endSize=8;strokeWidth=1;shadow=0;labelBackgroundColor=none;edgeStyle=orthogonalEdgeStyle;" edge="1" parent="rR85FR2aN-hJMiAtwUTk-1">
          <mxGeometry relative="1" as="geometry">
            <mxPoint x="341.5" y="360" as="sourcePoint" />
            <mxPoint x="460" y="360" as="targetPoint" />
          </mxGeometry>
        </mxCell>
        <mxCell id="NFGD1fv55AR-VZEpnrtZ-6" value="El trabajo permanece su tiempo en memoria" style="rounded=1;whiteSpace=wrap;html=1;fontSize=12;glass=0;strokeWidth=1;shadow=0;" vertex="1" parent="rR85FR2aN-hJMiAtwUTk-1">
          <mxGeometry x="690" y="730" width="120" height="40" as="geometry" />
        </mxCell>
        <mxCell id="kEAaXZ3v0n-VEhTMAsTf-0" value="no&lt;br&gt;" style="text;html=1;align=center;verticalAlign=middle;resizable=0;points=[];autosize=1;strokeColor=none;fillColor=none;" vertex="1" parent="rR85FR2aN-hJMiAtwUTk-1">
          <mxGeometry x="198.5" y="330" width="40" height="30" as="geometry" />
        </mxCell>
        <mxCell id="kEAaXZ3v0n-VEhTMAsTf-1" value="en el instante de tiempo sumo FE&amp;nbsp;" style="rounded=1;whiteSpace=wrap;html=1;fontSize=12;glass=0;strokeWidth=1;shadow=0;" vertex="1" parent="rR85FR2aN-hJMiAtwUTk-1">
          <mxGeometry x="690" y="615" width="120" height="40" as="geometry" />
        </mxCell>
        <mxCell id="kEAaXZ3v0n-VEhTMAsTf-11" value="Crear partición" style="rounded=1;whiteSpace=wrap;html=1;fontSize=12;glass=0;strokeWidth=1;shadow=0;" vertex="1" parent="rR85FR2aN-hJMiAtwUTk-1">
          <mxGeometry x="460" y="338" width="120" height="40" as="geometry" />
        </mxCell>
        <mxCell id="kEAaXZ3v0n-VEhTMAsTf-18" value="" style="shape=image;verticalLabelPosition=bottom;labelBackgroundColor=default;verticalAlign=top;aspect=fixed;imageAspect=0;image=https://www.shutterstock.com/shutterstock/photos/2112267179/display_1500/stock-vector-analog-clock-simple-vector-time-wall-clock-2112267179.jpg;" vertex="1" parent="rR85FR2aN-hJMiAtwUTk-1">
          <mxGeometry x="580" y="816.3399999999999" width="72.5" height="77.33" as="geometry" />
        </mxCell>
        <mxCell id="kEAaXZ3v0n-VEhTMAsTf-19" value="Actualizar tabla de particiones" style="rounded=1;whiteSpace=wrap;html=1;fontSize=12;glass=0;strokeWidth=1;shadow=0;" vertex="1" parent="rR85FR2aN-hJMiAtwUTk-1">
          <mxGeometry x="-500" y="85" width="120" height="75" as="geometry" />
        </mxCell>
        <mxCell id="Bxz3d_YLDMQcoaVa_oFX-2" value="cargar partición en la lista de particiones" style="rounded=1;whiteSpace=wrap;html=1;fontSize=12;glass=0;strokeWidth=1;shadow=0;" vertex="1" parent="rR85FR2aN-hJMiAtwUTk-1">
          <mxGeometry x="690" y="430" width="120" height="40" as="geometry" />
        </mxCell>
        <mxCell id="Bxz3d_YLDMQcoaVa_oFX-4" value="actualizar array y además si el trabajo ocupa menos que la partición asignada crear una instancia de partición para la que quedo libre" style="shape=callout;whiteSpace=wrap;html=1;perimeter=calloutPerimeter;size=30;position=0.5;direction=north;" vertex="1" parent="rR85FR2aN-hJMiAtwUTk-1">
          <mxGeometry x="410" y="440" width="280" height="60" as="geometry" />
        </mxCell>
        <mxCell id="Bxz3d_YLDMQcoaVa_oFX-7" value="filtrado de particiones libres" style="rounded=1;whiteSpace=wrap;html=1;fontSize=12;glass=0;strokeWidth=1;shadow=0;" vertex="1" parent="rR85FR2aN-hJMiAtwUTk-1">
          <mxGeometry x="230" y="220" width="120" height="40" as="geometry" />
        </mxCell>
        <mxCell id="Bxz3d_YLDMQcoaVa_oFX-9" value="" style="rounded=0;html=1;jettySize=auto;orthogonalLoop=1;fontSize=11;endArrow=block;endFill=0;endSize=8;strokeWidth=1;shadow=0;labelBackgroundColor=none;edgeStyle=orthogonalEdgeStyle;" edge="1" parent="rR85FR2aN-hJMiAtwUTk-1">
          <mxGeometry relative="1" as="geometry">
            <mxPoint x="290" y="320" as="targetPoint" />
            <mxPoint x="290" y="270" as="sourcePoint" />
          </mxGeometry>
        </mxCell>
        <mxCell id="gg72a_tMkrlyLdqzTpYQ-7" value="recorrer los trabajos en orden de la lista de trabajos&amp;nbsp;" style="shape=note;whiteSpace=wrap;html=1;backgroundOutline=1;darkOpacity=0.05;" vertex="1" parent="rR85FR2aN-hJMiAtwUTk-1">
          <mxGeometry x="-20" y="-140" width="140" height="150" as="geometry" />
        </mxCell>
        <mxCell id="gg72a_tMkrlyLdqzTpYQ-8" value="" style="endArrow=none;dashed=1;html=1;dashPattern=1 3;strokeWidth=2;rounded=0;" edge="1" parent="rR85FR2aN-hJMiAtwUTk-1">
          <mxGeometry width="50" height="50" relative="1" as="geometry">
            <mxPoint x="220" y="-30" as="sourcePoint" />
            <mxPoint x="130" y="-65" as="targetPoint" />
          </mxGeometry>
        </mxCell>
        <mxCell id="RaS2Osoi-X8U9FoYjpuT-0" style="edgeStyle=orthogonalEdgeStyle;rounded=0;orthogonalLoop=1;jettySize=auto;html=1;exitX=0.5;exitY=1;exitDx=0;exitDy=0;" edge="1" parent="rR85FR2aN-hJMiAtwUTk-1" source="kEAaXZ3v0n-VEhTMAsTf-11" target="kEAaXZ3v0n-VEhTMAsTf-11">
          <mxGeometry relative="1" as="geometry" />
        </mxCell>
        <mxCell id="RaS2Osoi-X8U9FoYjpuT-5" value="" style="rounded=0;html=1;jettySize=auto;orthogonalLoop=1;fontSize=11;endArrow=block;endFill=0;endSize=8;strokeWidth=1;shadow=0;labelBackgroundColor=none;edgeStyle=orthogonalEdgeStyle;" edge="1" parent="rR85FR2aN-hJMiAtwUTk-1">
          <mxGeometry relative="1" as="geometry">
            <mxPoint x="749.91" y="470" as="sourcePoint" />
            <mxPoint x="749.41" y="500" as="targetPoint" />
            <Array as="points" />
          </mxGeometry>
        </mxCell>
        <mxCell id="RaS2Osoi-X8U9FoYjpuT-8" value="" style="endArrow=none;dashed=1;html=1;dashPattern=1 3;strokeWidth=2;rounded=0;" edge="1" parent="rR85FR2aN-hJMiAtwUTk-1">
          <mxGeometry width="50" height="50" relative="1" as="geometry">
            <mxPoint x="330" y="330" as="sourcePoint" />
            <mxPoint x="710" y="220" as="targetPoint" />
          </mxGeometry>
        </mxCell>
        <mxCell id="RaS2Osoi-X8U9FoYjpuT-9" value="recorrer ese listado de particiones libres y comparar si el tamaño del trabajo alcanza, si es el primer trabajo a entrar solo filtrar la Partición 0 la cual es el tamaño de la memoria" style="shape=note;whiteSpace=wrap;html=1;backgroundOutline=1;darkOpacity=0.05;" vertex="1" parent="rR85FR2aN-hJMiAtwUTk-1">
          <mxGeometry x="730" y="90" width="210" height="150" as="geometry" />
        </mxCell>
        <mxCell id="RaS2Osoi-X8U9FoYjpuT-10" value="eliminamos el trabajo de la lista de trabajos" style="rounded=1;whiteSpace=wrap;html=1;fontSize=12;glass=0;strokeWidth=1;shadow=0;" vertex="1" parent="rR85FR2aN-hJMiAtwUTk-1">
          <mxGeometry x="685" y="338" width="120" height="40" as="geometry" />
        </mxCell>
        <mxCell id="uI4USI_von5IL1s3Vbi3-1" value="Memoria disponible - memoria utilizada" style="shape=note;whiteSpace=wrap;html=1;backgroundOutline=1;darkOpacity=0.05;" vertex="1" parent="rR85FR2aN-hJMiAtwUTk-1">
          <mxGeometry x="350" y="585" width="230" height="80" as="geometry" />
        </mxCell>
        <mxCell id="uI4USI_von5IL1s3Vbi3-2" value="" style="endArrow=none;dashed=1;html=1;rounded=0;" edge="1" parent="rR85FR2aN-hJMiAtwUTk-1">
          <mxGeometry width="50" height="50" relative="1" as="geometry">
            <mxPoint x="670" y="630" as="sourcePoint" />
            <mxPoint x="600" y="630" as="targetPoint" />
          </mxGeometry>
        </mxCell>
        <mxCell id="uI4USI_von5IL1s3Vbi3-5" value="" style="rounded=0;html=1;jettySize=auto;orthogonalLoop=1;fontSize=11;endArrow=block;endFill=0;endSize=8;strokeWidth=1;shadow=0;labelBackgroundColor=none;edgeStyle=orthogonalEdgeStyle;" edge="1" parent="rR85FR2aN-hJMiAtwUTk-1">
          <mxGeometry relative="1" as="geometry">
            <mxPoint x="749.5" y="540" as="sourcePoint" />
            <mxPoint x="749.5" y="580" as="targetPoint" />
            <Array as="points" />
          </mxGeometry>
        </mxCell>
        <mxCell id="4ZuKVq1xuJvDHAylKMEF-0" value="ademas, actualizar la variable tiempo de finalizacion, la cual es tiempo actual + duracion" style="shape=note;whiteSpace=wrap;html=1;backgroundOutline=1;darkOpacity=0.05;" vertex="1" parent="rR85FR2aN-hJMiAtwUTk-1">
          <mxGeometry x="940" y="278" width="130" height="150" as="geometry" />
        </mxCell>
        <mxCell id="4ZuKVq1xuJvDHAylKMEF-3" value="&lt;span style=&quot;font-size: 11px;&quot;&gt;¿tiempo actual es igual a tiempo de finalización?&lt;/span&gt;" style="strokeWidth=2;html=1;shape=mxgraph.flowchart.decision;whiteSpace=wrap;" vertex="1" parent="rR85FR2aN-hJMiAtwUTk-1">
          <mxGeometry x="220" y="40" width="150" height="120" as="geometry" />
        </mxCell>
        <mxCell id="NFGD1fv55AR-VZEpnrtZ-7" value="Liberar partición" style="rounded=1;whiteSpace=wrap;html=1;fontSize=12;glass=0;strokeWidth=1;shadow=0;" vertex="1" parent="rR85FR2aN-hJMiAtwUTk-1">
          <mxGeometry x="50" y="90" width="120" height="40" as="geometry" />
        </mxCell>
        <mxCell id="4ZuKVq1xuJvDHAylKMEF-12" value="" style="rounded=0;html=1;jettySize=auto;orthogonalLoop=1;fontSize=11;endArrow=block;endFill=0;endSize=8;strokeWidth=1;shadow=0;labelBackgroundColor=none;edgeStyle=orthogonalEdgeStyle;" edge="1" parent="rR85FR2aN-hJMiAtwUTk-1">
          <mxGeometry relative="1" as="geometry">
            <mxPoint x="218.5" y="109.29000000000008" as="sourcePoint" />
            <mxPoint x="178.5" y="109.70000000000005" as="targetPoint" />
            <Array as="points">
              <mxPoint x="198.5" y="109.29000000000008" />
              <mxPoint x="198.5" y="109.29000000000008" />
            </Array>
          </mxGeometry>
        </mxCell>
        <mxCell id="4ZuKVq1xuJvDHAylKMEF-13" value="si" style="text;html=1;align=center;verticalAlign=middle;resizable=0;points=[];autosize=1;strokeColor=none;fillColor=none;" vertex="1" parent="rR85FR2aN-hJMiAtwUTk-1">
          <mxGeometry x="183.5" y="75" width="30" height="30" as="geometry" />
        </mxCell>
        <mxCell id="4ZuKVq1xuJvDHAylKMEF-14" value="" style="endArrow=none;dashed=1;html=1;rounded=0;" edge="1" parent="rR85FR2aN-hJMiAtwUTk-1">
          <mxGeometry width="50" height="50" relative="1" as="geometry">
            <mxPoint x="820" y="440" as="sourcePoint" />
            <mxPoint x="930" y="400" as="targetPoint" />
          </mxGeometry>
        </mxCell>
        <mxCell id="eU_-h4xKu9EH1-ZDxUtK-1" value="sigue otro ciclo de tiempo" style="strokeWidth=2;html=1;shape=mxgraph.flowchart.terminator;whiteSpace=wrap;" vertex="1" parent="rR85FR2aN-hJMiAtwUTk-1">
          <mxGeometry x="695" y="820" width="110" height="70" as="geometry" />
        </mxCell>
        <mxCell id="eU_-h4xKu9EH1-ZDxUtK-2" value="Recorre toda la lista de particiones buscando si su tiempo de finalizacion es el actual" style="shape=note;whiteSpace=wrap;html=1;backgroundOutline=1;darkOpacity=0.05;" vertex="1" parent="rR85FR2aN-hJMiAtwUTk-1">
          <mxGeometry x="562.5" y="-145" width="230" height="110" as="geometry" />
        </mxCell>
        <mxCell id="eU_-h4xKu9EH1-ZDxUtK-3" value="" style="endArrow=none;dashed=1;html=1;rounded=0;" edge="1" parent="rR85FR2aN-hJMiAtwUTk-1">
          <mxGeometry width="50" height="50" relative="1" as="geometry">
            <mxPoint x="540" y="-110" as="sourcePoint" />
            <mxPoint x="340" y="75" as="targetPoint" />
          </mxGeometry>
        </mxCell>
        <mxCell id="eU_-h4xKu9EH1-ZDxUtK-4" style="edgeStyle=orthogonalEdgeStyle;rounded=0;orthogonalLoop=1;jettySize=auto;html=1;exitX=0.5;exitY=1;exitDx=0;exitDy=0;" edge="1" parent="rR85FR2aN-hJMiAtwUTk-1" source="kEAaXZ3v0n-VEhTMAsTf-11" target="kEAaXZ3v0n-VEhTMAsTf-11">
          <mxGeometry relative="1" as="geometry" />
        </mxCell>
        <mxCell id="eU_-h4xKu9EH1-ZDxUtK-5" value="Ademas si vemos que en la tabla hay dos particiones contiguas libres, unificarlas(llamar a metodo de unificar particion)" style="shape=note;whiteSpace=wrap;html=1;backgroundOutline=1;darkOpacity=0.05;" vertex="1" parent="rR85FR2aN-hJMiAtwUTk-1">
          <mxGeometry x="-350" y="-170" width="140" height="160" as="geometry" />
        </mxCell>
        <mxCell id="eU_-h4xKu9EH1-ZDxUtK-6" value="" style="endArrow=none;dashed=1;html=1;dashPattern=1 3;strokeWidth=2;rounded=0;" edge="1" parent="rR85FR2aN-hJMiAtwUTk-1">
          <mxGeometry width="50" height="50" relative="1" as="geometry">
            <mxPoint x="-260" y="60" as="sourcePoint" />
            <mxPoint x="-250" as="targetPoint" />
          </mxGeometry>
        </mxCell>
        <mxCell id="eU_-h4xKu9EH1-ZDxUtK-8" value="no" style="text;html=1;align=center;verticalAlign=middle;resizable=0;points=[];autosize=1;strokeColor=none;fillColor=none;" vertex="1" parent="rR85FR2aN-hJMiAtwUTk-1">
          <mxGeometry x="290" y="168" width="40" height="30" as="geometry" />
        </mxCell>
        <mxCell id="eU_-h4xKu9EH1-ZDxUtK-9" value="" style="rounded=0;html=1;jettySize=auto;orthogonalLoop=1;fontSize=11;endArrow=block;endFill=0;endSize=8;strokeWidth=1;shadow=0;labelBackgroundColor=none;edgeStyle=orthogonalEdgeStyle;" edge="1" parent="rR85FR2aN-hJMiAtwUTk-1">
          <mxGeometry relative="1" as="geometry">
            <mxPoint x="50" y="109.41000000000005" as="sourcePoint" />
            <mxPoint x="10" y="109.82000000000002" as="targetPoint" />
            <Array as="points">
              <mxPoint x="30" y="109.41000000000005" />
              <mxPoint x="30" y="109.41000000000005" />
            </Array>
          </mxGeometry>
        </mxCell>
        <mxCell id="eU_-h4xKu9EH1-ZDxUtK-11" value="" style="rounded=0;html=1;jettySize=auto;orthogonalLoop=1;fontSize=11;endArrow=block;endFill=0;endSize=8;strokeWidth=1;shadow=0;labelBackgroundColor=none;edgeStyle=orthogonalEdgeStyle;exitX=0.5;exitY=1;exitDx=0;exitDy=0;" edge="1" parent="rR85FR2aN-hJMiAtwUTk-1" source="kEAaXZ3v0n-VEhTMAsTf-19">
          <mxGeometry relative="1" as="geometry">
            <mxPoint x="-580" y="150" as="sourcePoint" />
            <mxPoint x="210" y="240" as="targetPoint" />
            <Array as="points">
              <mxPoint x="-440" y="240" />
            </Array>
          </mxGeometry>
        </mxCell>
        <mxCell id="eU_-h4xKu9EH1-ZDxUtK-12" value="" style="rounded=0;html=1;jettySize=auto;orthogonalLoop=1;fontSize=11;endArrow=block;endFill=0;endSize=8;strokeWidth=1;shadow=0;labelBackgroundColor=none;edgeStyle=orthogonalEdgeStyle;" edge="1" parent="rR85FR2aN-hJMiAtwUTk-1">
          <mxGeometry relative="1" as="geometry">
            <mxPoint x="294.17" y="30" as="targetPoint" />
            <mxPoint x="294.17" y="-10" as="sourcePoint" />
          </mxGeometry>
        </mxCell>
        <mxCell id="eU_-h4xKu9EH1-ZDxUtK-13" value="Estrategia Firs fit" style="strokeWidth=2;html=1;shape=mxgraph.flowchart.start_1;whiteSpace=wrap;" vertex="1" parent="rR85FR2aN-hJMiAtwUTk-1">
          <mxGeometry x="248.5" y="-180" width="100" height="60" as="geometry" />
        </mxCell>
        <mxCell id="eU_-h4xKu9EH1-ZDxUtK-14" value="unificar particiones(las particiones contiguas libres la concatena)" style="rounded=1;whiteSpace=wrap;html=1;fontSize=12;glass=0;strokeWidth=1;shadow=0;" vertex="1" parent="rR85FR2aN-hJMiAtwUTk-1">
          <mxGeometry x="-330" y="80" width="130" height="80" as="geometry" />
        </mxCell>
        <mxCell id="eU_-h4xKu9EH1-ZDxUtK-15" value="" style="rounded=0;html=1;jettySize=auto;orthogonalLoop=1;fontSize=11;endArrow=block;endFill=0;endSize=8;strokeWidth=1;shadow=0;labelBackgroundColor=none;edgeStyle=orthogonalEdgeStyle;" edge="1" parent="rR85FR2aN-hJMiAtwUTk-1">
          <mxGeometry relative="1" as="geometry">
            <mxPoint x="-340" y="114.29000000000005" as="sourcePoint" />
            <mxPoint x="-380" y="114.70000000000002" as="targetPoint" />
            <Array as="points">
              <mxPoint x="-360" y="114.29000000000005" />
              <mxPoint x="-360" y="114.29000000000005" />
            </Array>
          </mxGeometry>
        </mxCell>
        <mxCell id="eU_-h4xKu9EH1-ZDxUtK-16" value="ponemos la particion en estado &quot;libre&quot;" style="rounded=1;whiteSpace=wrap;html=1;fontSize=12;glass=0;strokeWidth=1;shadow=0;" vertex="1" parent="rR85FR2aN-hJMiAtwUTk-1">
          <mxGeometry x="-130" y="95" width="120" height="40" as="geometry" />
        </mxCell>
        <mxCell id="eU_-h4xKu9EH1-ZDxUtK-17" value="" style="rounded=0;html=1;jettySize=auto;orthogonalLoop=1;fontSize=11;endArrow=block;endFill=0;endSize=8;strokeWidth=1;shadow=0;labelBackgroundColor=none;edgeStyle=orthogonalEdgeStyle;" edge="1" parent="rR85FR2aN-hJMiAtwUTk-1">
          <mxGeometry relative="1" as="geometry">
            <mxPoint x="-140" y="114.29000000000005" as="sourcePoint" />
            <mxPoint x="-180" y="114.70000000000002" as="targetPoint" />
            <Array as="points">
              <mxPoint x="-160" y="114.29000000000005" />
              <mxPoint x="-160" y="114.29000000000005" />
            </Array>
          </mxGeometry>
        </mxCell>
        <mxCell id="eU_-h4xKu9EH1-ZDxUtK-18" style="edgeStyle=orthogonalEdgeStyle;rounded=0;orthogonalLoop=1;jettySize=auto;html=1;exitX=0.5;exitY=1;exitDx=0;exitDy=0;" edge="1" parent="rR85FR2aN-hJMiAtwUTk-1" source="NFGD1fv55AR-VZEpnrtZ-6" target="NFGD1fv55AR-VZEpnrtZ-6">
          <mxGeometry relative="1" as="geometry" />
        </mxCell>
        <mxCell id="0KEbYmF6201tEgdtxQ9q-1" value="esperar otro ciclo" style="strokeWidth=2;html=1;shape=mxgraph.flowchart.terminator;whiteSpace=wrap;" vertex="1" parent="rR85FR2aN-hJMiAtwUTk-1">
          <mxGeometry x="138.5" y="520" width="110" height="70" as="geometry" />
        </mxCell>
        <mxCell id="0KEbYmF6201tEgdtxQ9q-4" value="" style="rounded=0;html=1;jettySize=auto;orthogonalLoop=1;fontSize=11;endArrow=block;endFill=0;endSize=8;strokeWidth=1;shadow=0;labelBackgroundColor=none;edgeStyle=orthogonalEdgeStyle;" edge="1" parent="rR85FR2aN-hJMiAtwUTk-1">
          <mxGeometry relative="1" as="geometry">
            <mxPoint x="580" y="360" as="sourcePoint" />
            <mxPoint x="650" y="360" as="targetPoint" />
          </mxGeometry>
        </mxCell>
        <mxCell id="0KEbYmF6201tEgdtxQ9q-5" value="" style="rounded=0;html=1;jettySize=auto;orthogonalLoop=1;fontSize=11;endArrow=block;endFill=0;endSize=8;strokeWidth=1;shadow=0;labelBackgroundColor=none;edgeStyle=orthogonalEdgeStyle;" edge="1" parent="rR85FR2aN-hJMiAtwUTk-1">
          <mxGeometry relative="1" as="geometry">
            <mxPoint x="745.0799999999999" y="390" as="sourcePoint" />
            <mxPoint x="744.5799999999999" y="420" as="targetPoint" />
            <Array as="points" />
          </mxGeometry>
        </mxCell>
        <mxCell id="0KEbYmF6201tEgdtxQ9q-7" value="" style="rounded=0;html=1;jettySize=auto;orthogonalLoop=1;fontSize=11;endArrow=block;endFill=0;endSize=8;strokeWidth=1;shadow=0;labelBackgroundColor=none;edgeStyle=orthogonalEdgeStyle;" edge="1" parent="rR85FR2aN-hJMiAtwUTk-1">
          <mxGeometry relative="1" as="geometry">
            <mxPoint x="749.29" y="680" as="sourcePoint" />
            <mxPoint x="749.29" y="720" as="targetPoint" />
            <Array as="points" />
          </mxGeometry>
        </mxCell>
        <mxCell id="0KEbYmF6201tEgdtxQ9q-8" value="" style="rounded=0;html=1;jettySize=auto;orthogonalLoop=1;fontSize=11;endArrow=block;endFill=0;endSize=8;strokeWidth=1;shadow=0;labelBackgroundColor=none;edgeStyle=orthogonalEdgeStyle;" edge="1" parent="rR85FR2aN-hJMiAtwUTk-1">
          <mxGeometry relative="1" as="geometry">
            <mxPoint x="749.29" y="770" as="sourcePoint" />
            <mxPoint x="749.29" y="810" as="targetPoint" />
            <Array as="points" />
          </mxGeometry>
        </mxCell>
        <mxCell id="jFdVxHMoLHHpv340cHIs-0" value="en el instante de tiempo sumo FE&amp;nbsp;" style="rounded=1;whiteSpace=wrap;html=1;fontSize=12;glass=0;strokeWidth=1;shadow=0;" vertex="1" parent="rR85FR2aN-hJMiAtwUTk-1">
          <mxGeometry x="128.5" y="428" width="120" height="40" as="geometry" />
        </mxCell>
        <mxCell id="jFdVxHMoLHHpv340cHIs-1" value="" style="rounded=0;html=1;jettySize=auto;orthogonalLoop=1;fontSize=11;endArrow=block;endFill=0;endSize=8;strokeWidth=1;shadow=0;labelBackgroundColor=none;edgeStyle=orthogonalEdgeStyle;" edge="1" parent="rR85FR2aN-hJMiAtwUTk-1">
          <mxGeometry relative="1" as="geometry">
            <mxPoint x="198.5" y="480" as="sourcePoint" />
            <mxPoint x="198.5" y="520" as="targetPoint" />
            <Array as="points" />
          </mxGeometry>
        </mxCell>
      </root>
    </mxGraphModel>
  </diagram>
  <diagram name="Diagrama de flujo Best fit" id="szqVmLL2UBYTpRSqnDn0">
    <mxGraphModel grid="1" page="1" gridSize="10" guides="1" tooltips="1" connect="1" arrows="1" fold="1" pageScale="1" pageWidth="827" pageHeight="1169" math="0" shadow="0">
      <root>
        <mxCell id="KPwIThT03iQtOaX8DPeF-0" />
        <mxCell id="KPwIThT03iQtOaX8DPeF-1" parent="KPwIThT03iQtOaX8DPeF-0" />
        <mxCell id="KPwIThT03iQtOaX8DPeF-2" value="" style="rounded=0;html=1;jettySize=auto;orthogonalLoop=1;fontSize=11;endArrow=block;endFill=0;endSize=8;strokeWidth=1;shadow=0;labelBackgroundColor=none;edgeStyle=orthogonalEdgeStyle;" edge="1" parent="KPwIThT03iQtOaX8DPeF-1">
          <mxGeometry relative="1" as="geometry">
            <mxPoint x="294.66" y="170" as="sourcePoint" />
            <mxPoint x="294.66" y="210" as="targetPoint" />
            <Array as="points">
              <mxPoint x="294.66" y="180" />
              <mxPoint x="294.66" y="180" />
            </Array>
          </mxGeometry>
        </mxCell>
        <mxCell id="KPwIThT03iQtOaX8DPeF-3" value="Mientras halla trabajos" style="rounded=1;whiteSpace=wrap;html=1;fontSize=12;glass=0;strokeWidth=1;shadow=0;" vertex="1" parent="KPwIThT03iQtOaX8DPeF-1">
          <mxGeometry x="238.5" y="-50" width="120" height="40" as="geometry" />
        </mxCell>
        <mxCell id="KPwIThT03iQtOaX8DPeF-4" value="Actualizar tabla de particiones" style="rounded=1;whiteSpace=wrap;html=1;fontSize=12;glass=0;strokeWidth=1;shadow=0;" vertex="1" parent="KPwIThT03iQtOaX8DPeF-1">
          <mxGeometry x="690" y="500" width="120" height="40" as="geometry" />
        </mxCell>
        <mxCell id="KPwIThT03iQtOaX8DPeF-5" value="" style="rounded=0;html=1;jettySize=auto;orthogonalLoop=1;fontSize=11;endArrow=block;endFill=0;endSize=8;strokeWidth=1;shadow=0;labelBackgroundColor=none;edgeStyle=orthogonalEdgeStyle;exitX=0;exitY=0.5;exitDx=0;exitDy=0;exitPerimeter=0;" edge="1" parent="KPwIThT03iQtOaX8DPeF-1" source="KPwIThT03iQtOaX8DPeF-6">
          <mxGeometry relative="1" as="geometry">
            <mxPoint x="180" y="340" as="sourcePoint" />
            <mxPoint x="199" y="420" as="targetPoint" />
          </mxGeometry>
        </mxCell>
        <mxCell id="KPwIThT03iQtOaX8DPeF-6" value="¿Memoria disponible?" style="strokeWidth=2;html=1;shape=mxgraph.flowchart.decision;whiteSpace=wrap;" vertex="1" parent="KPwIThT03iQtOaX8DPeF-1">
          <mxGeometry x="238.5" y="320" width="103" height="80" as="geometry" />
        </mxCell>
        <mxCell id="KPwIThT03iQtOaX8DPeF-7" value="Si" style="text;html=1;align=center;verticalAlign=middle;resizable=0;points=[];autosize=1;strokeColor=none;fillColor=none;" vertex="1" parent="KPwIThT03iQtOaX8DPeF-1">
          <mxGeometry x="370" y="338" width="30" height="30" as="geometry" />
        </mxCell>
        <mxCell id="KPwIThT03iQtOaX8DPeF-8" value="" style="rounded=0;html=1;jettySize=auto;orthogonalLoop=1;fontSize=11;endArrow=block;endFill=0;endSize=8;strokeWidth=1;shadow=0;labelBackgroundColor=none;edgeStyle=orthogonalEdgeStyle;" edge="1" parent="KPwIThT03iQtOaX8DPeF-1">
          <mxGeometry relative="1" as="geometry">
            <mxPoint x="341.5" y="360" as="sourcePoint" />
            <mxPoint x="460" y="360" as="targetPoint" />
          </mxGeometry>
        </mxCell>
        <mxCell id="KPwIThT03iQtOaX8DPeF-9" value="El trabajo permanece su tiempo en memoria" style="rounded=1;whiteSpace=wrap;html=1;fontSize=12;glass=0;strokeWidth=1;shadow=0;" vertex="1" parent="KPwIThT03iQtOaX8DPeF-1">
          <mxGeometry x="690" y="730" width="120" height="40" as="geometry" />
        </mxCell>
        <mxCell id="KPwIThT03iQtOaX8DPeF-10" value="no&lt;br&gt;" style="text;html=1;align=center;verticalAlign=middle;resizable=0;points=[];autosize=1;strokeColor=none;fillColor=none;" vertex="1" parent="KPwIThT03iQtOaX8DPeF-1">
          <mxGeometry x="198.5" y="330" width="40" height="30" as="geometry" />
        </mxCell>
        <mxCell id="KPwIThT03iQtOaX8DPeF-11" value="en el instante de tiempo sumo FE&amp;nbsp;" style="rounded=1;whiteSpace=wrap;html=1;fontSize=12;glass=0;strokeWidth=1;shadow=0;" vertex="1" parent="KPwIThT03iQtOaX8DPeF-1">
          <mxGeometry x="690" y="615" width="120" height="40" as="geometry" />
        </mxCell>
        <mxCell id="KPwIThT03iQtOaX8DPeF-12" value="Crear partición" style="rounded=1;whiteSpace=wrap;html=1;fontSize=12;glass=0;strokeWidth=1;shadow=0;" vertex="1" parent="KPwIThT03iQtOaX8DPeF-1">
          <mxGeometry x="460" y="338" width="120" height="40" as="geometry" />
        </mxCell>
        <mxCell id="KPwIThT03iQtOaX8DPeF-13" value="" style="shape=image;verticalLabelPosition=bottom;labelBackgroundColor=default;verticalAlign=top;aspect=fixed;imageAspect=0;image=https://www.shutterstock.com/shutterstock/photos/2112267179/display_1500/stock-vector-analog-clock-simple-vector-time-wall-clock-2112267179.jpg;" vertex="1" parent="KPwIThT03iQtOaX8DPeF-1">
          <mxGeometry x="580" y="816.3399999999999" width="72.5" height="77.33" as="geometry" />
        </mxCell>
        <mxCell id="KPwIThT03iQtOaX8DPeF-14" value="Actualizar tabla de particiones" style="rounded=1;whiteSpace=wrap;html=1;fontSize=12;glass=0;strokeWidth=1;shadow=0;" vertex="1" parent="KPwIThT03iQtOaX8DPeF-1">
          <mxGeometry x="-500" y="85" width="120" height="75" as="geometry" />
        </mxCell>
        <mxCell id="KPwIThT03iQtOaX8DPeF-15" value="cargar partición en la lista de particiones" style="rounded=1;whiteSpace=wrap;html=1;fontSize=12;glass=0;strokeWidth=1;shadow=0;" vertex="1" parent="KPwIThT03iQtOaX8DPeF-1">
          <mxGeometry x="690" y="430" width="120" height="40" as="geometry" />
        </mxCell>
        <mxCell id="KPwIThT03iQtOaX8DPeF-16" value="actualizar array y además si el trabajo ocupa menos que la partición asignada crear una instancia de partición para la que quedo libre" style="shape=callout;whiteSpace=wrap;html=1;perimeter=calloutPerimeter;size=30;position=0.5;direction=north;" vertex="1" parent="KPwIThT03iQtOaX8DPeF-1">
          <mxGeometry x="410" y="440" width="280" height="60" as="geometry" />
        </mxCell>
        <mxCell id="KPwIThT03iQtOaX8DPeF-17" value="filtrado de particiones libres" style="rounded=1;whiteSpace=wrap;html=1;fontSize=12;glass=0;strokeWidth=1;shadow=0;" vertex="1" parent="KPwIThT03iQtOaX8DPeF-1">
          <mxGeometry x="230" y="220" width="120" height="40" as="geometry" />
        </mxCell>
        <mxCell id="KPwIThT03iQtOaX8DPeF-18" value="" style="rounded=0;html=1;jettySize=auto;orthogonalLoop=1;fontSize=11;endArrow=block;endFill=0;endSize=8;strokeWidth=1;shadow=0;labelBackgroundColor=none;edgeStyle=orthogonalEdgeStyle;" edge="1" parent="KPwIThT03iQtOaX8DPeF-1">
          <mxGeometry relative="1" as="geometry">
            <mxPoint x="290" y="320" as="targetPoint" />
            <mxPoint x="290" y="270" as="sourcePoint" />
          </mxGeometry>
        </mxCell>
        <mxCell id="KPwIThT03iQtOaX8DPeF-19" value="recorrer los trabajos en orden de la lista de trabajos&amp;nbsp;" style="shape=note;whiteSpace=wrap;html=1;backgroundOutline=1;darkOpacity=0.05;" vertex="1" parent="KPwIThT03iQtOaX8DPeF-1">
          <mxGeometry x="-20" y="-140" width="140" height="150" as="geometry" />
        </mxCell>
        <mxCell id="KPwIThT03iQtOaX8DPeF-20" value="" style="endArrow=none;dashed=1;html=1;dashPattern=1 3;strokeWidth=2;rounded=0;" edge="1" parent="KPwIThT03iQtOaX8DPeF-1">
          <mxGeometry width="50" height="50" relative="1" as="geometry">
            <mxPoint x="220" y="-30" as="sourcePoint" />
            <mxPoint x="130" y="-65" as="targetPoint" />
          </mxGeometry>
        </mxCell>
        <mxCell id="KPwIThT03iQtOaX8DPeF-21" style="edgeStyle=orthogonalEdgeStyle;rounded=0;orthogonalLoop=1;jettySize=auto;html=1;exitX=0.5;exitY=1;exitDx=0;exitDy=0;" edge="1" parent="KPwIThT03iQtOaX8DPeF-1" source="KPwIThT03iQtOaX8DPeF-12" target="KPwIThT03iQtOaX8DPeF-12">
          <mxGeometry relative="1" as="geometry" />
        </mxCell>
        <mxCell id="KPwIThT03iQtOaX8DPeF-22" value="" style="rounded=0;html=1;jettySize=auto;orthogonalLoop=1;fontSize=11;endArrow=block;endFill=0;endSize=8;strokeWidth=1;shadow=0;labelBackgroundColor=none;edgeStyle=orthogonalEdgeStyle;" edge="1" parent="KPwIThT03iQtOaX8DPeF-1">
          <mxGeometry relative="1" as="geometry">
            <mxPoint x="749.91" y="470" as="sourcePoint" />
            <mxPoint x="749.41" y="500" as="targetPoint" />
            <Array as="points" />
          </mxGeometry>
        </mxCell>
        <mxCell id="KPwIThT03iQtOaX8DPeF-23" value="" style="endArrow=none;dashed=1;html=1;dashPattern=1 3;strokeWidth=2;rounded=0;" edge="1" parent="KPwIThT03iQtOaX8DPeF-1">
          <mxGeometry width="50" height="50" relative="1" as="geometry">
            <mxPoint x="330" y="330" as="sourcePoint" />
            <mxPoint x="710" y="220" as="targetPoint" />
          </mxGeometry>
        </mxCell>
        <mxCell id="KPwIThT03iQtOaX8DPeF-24" value="primero se va a crear una replica de la lista de particiones libres y va a estar ordenada de menor a mayor por tamaño. recorro esa lista y la primera coincidencia es la partición adecuada, luego con ese id de partición llego a la lista de partición original para modificarla." style="shape=note;whiteSpace=wrap;html=1;backgroundOutline=1;darkOpacity=0.05;" vertex="1" parent="KPwIThT03iQtOaX8DPeF-1">
          <mxGeometry x="710" y="90" width="260" height="180" as="geometry" />
        </mxCell>
        <mxCell id="KPwIThT03iQtOaX8DPeF-25" value="eliminamos el trabajo de la lista de trabajos" style="rounded=1;whiteSpace=wrap;html=1;fontSize=12;glass=0;strokeWidth=1;shadow=0;" vertex="1" parent="KPwIThT03iQtOaX8DPeF-1">
          <mxGeometry x="685" y="338" width="120" height="40" as="geometry" />
        </mxCell>
        <mxCell id="KPwIThT03iQtOaX8DPeF-26" value="Memoria disponible - memoria utilizada" style="shape=note;whiteSpace=wrap;html=1;backgroundOutline=1;darkOpacity=0.05;" vertex="1" parent="KPwIThT03iQtOaX8DPeF-1">
          <mxGeometry x="350" y="585" width="230" height="80" as="geometry" />
        </mxCell>
        <mxCell id="KPwIThT03iQtOaX8DPeF-27" value="" style="endArrow=none;dashed=1;html=1;rounded=0;" edge="1" parent="KPwIThT03iQtOaX8DPeF-1">
          <mxGeometry width="50" height="50" relative="1" as="geometry">
            <mxPoint x="670" y="630" as="sourcePoint" />
            <mxPoint x="600" y="630" as="targetPoint" />
          </mxGeometry>
        </mxCell>
        <mxCell id="KPwIThT03iQtOaX8DPeF-28" value="" style="rounded=0;html=1;jettySize=auto;orthogonalLoop=1;fontSize=11;endArrow=block;endFill=0;endSize=8;strokeWidth=1;shadow=0;labelBackgroundColor=none;edgeStyle=orthogonalEdgeStyle;" edge="1" parent="KPwIThT03iQtOaX8DPeF-1">
          <mxGeometry relative="1" as="geometry">
            <mxPoint x="749.5" y="540" as="sourcePoint" />
            <mxPoint x="749.5" y="580" as="targetPoint" />
            <Array as="points" />
          </mxGeometry>
        </mxCell>
        <mxCell id="KPwIThT03iQtOaX8DPeF-29" value="ademas, actualizar la variable tiempo de finalizacion, la cual es tiempo actual + duracion" style="shape=note;whiteSpace=wrap;html=1;backgroundOutline=1;darkOpacity=0.05;" vertex="1" parent="KPwIThT03iQtOaX8DPeF-1">
          <mxGeometry x="940" y="278" width="130" height="150" as="geometry" />
        </mxCell>
        <mxCell id="KPwIThT03iQtOaX8DPeF-30" value="&lt;span style=&quot;font-size: 11px;&quot;&gt;¿tiempo actual es igual a tiempo de finalización?&lt;/span&gt;" style="strokeWidth=2;html=1;shape=mxgraph.flowchart.decision;whiteSpace=wrap;" vertex="1" parent="KPwIThT03iQtOaX8DPeF-1">
          <mxGeometry x="220" y="40" width="150" height="120" as="geometry" />
        </mxCell>
        <mxCell id="KPwIThT03iQtOaX8DPeF-31" value="Liberar partición" style="rounded=1;whiteSpace=wrap;html=1;fontSize=12;glass=0;strokeWidth=1;shadow=0;" vertex="1" parent="KPwIThT03iQtOaX8DPeF-1">
          <mxGeometry x="50" y="90" width="120" height="40" as="geometry" />
        </mxCell>
        <mxCell id="KPwIThT03iQtOaX8DPeF-32" value="" style="rounded=0;html=1;jettySize=auto;orthogonalLoop=1;fontSize=11;endArrow=block;endFill=0;endSize=8;strokeWidth=1;shadow=0;labelBackgroundColor=none;edgeStyle=orthogonalEdgeStyle;" edge="1" parent="KPwIThT03iQtOaX8DPeF-1">
          <mxGeometry relative="1" as="geometry">
            <mxPoint x="218.5" y="109.29000000000008" as="sourcePoint" />
            <mxPoint x="178.5" y="109.70000000000005" as="targetPoint" />
            <Array as="points">
              <mxPoint x="198.5" y="109.29000000000008" />
              <mxPoint x="198.5" y="109.29000000000008" />
            </Array>
          </mxGeometry>
        </mxCell>
        <mxCell id="KPwIThT03iQtOaX8DPeF-33" value="si" style="text;html=1;align=center;verticalAlign=middle;resizable=0;points=[];autosize=1;strokeColor=none;fillColor=none;" vertex="1" parent="KPwIThT03iQtOaX8DPeF-1">
          <mxGeometry x="183.5" y="75" width="30" height="30" as="geometry" />
        </mxCell>
        <mxCell id="KPwIThT03iQtOaX8DPeF-34" value="" style="endArrow=none;dashed=1;html=1;rounded=0;" edge="1" parent="KPwIThT03iQtOaX8DPeF-1">
          <mxGeometry width="50" height="50" relative="1" as="geometry">
            <mxPoint x="820" y="440" as="sourcePoint" />
            <mxPoint x="930" y="400" as="targetPoint" />
          </mxGeometry>
        </mxCell>
        <mxCell id="KPwIThT03iQtOaX8DPeF-35" value="sigue otro ciclo de tiempo" style="strokeWidth=2;html=1;shape=mxgraph.flowchart.terminator;whiteSpace=wrap;" vertex="1" parent="KPwIThT03iQtOaX8DPeF-1">
          <mxGeometry x="695" y="820" width="110" height="70" as="geometry" />
        </mxCell>
        <mxCell id="KPwIThT03iQtOaX8DPeF-36" value="Recorre toda la lista de particiones buscando si su tiempo de finalizacion es el actual" style="shape=note;whiteSpace=wrap;html=1;backgroundOutline=1;darkOpacity=0.05;" vertex="1" parent="KPwIThT03iQtOaX8DPeF-1">
          <mxGeometry x="562.5" y="-145" width="230" height="110" as="geometry" />
        </mxCell>
        <mxCell id="KPwIThT03iQtOaX8DPeF-37" value="" style="endArrow=none;dashed=1;html=1;rounded=0;" edge="1" parent="KPwIThT03iQtOaX8DPeF-1">
          <mxGeometry width="50" height="50" relative="1" as="geometry">
            <mxPoint x="540" y="-110" as="sourcePoint" />
            <mxPoint x="340" y="75" as="targetPoint" />
          </mxGeometry>
        </mxCell>
        <mxCell id="KPwIThT03iQtOaX8DPeF-38" style="edgeStyle=orthogonalEdgeStyle;rounded=0;orthogonalLoop=1;jettySize=auto;html=1;exitX=0.5;exitY=1;exitDx=0;exitDy=0;" edge="1" parent="KPwIThT03iQtOaX8DPeF-1" source="KPwIThT03iQtOaX8DPeF-12" target="KPwIThT03iQtOaX8DPeF-12">
          <mxGeometry relative="1" as="geometry" />
        </mxCell>
        <mxCell id="KPwIThT03iQtOaX8DPeF-39" value="Ademas si vemos que en la tabla hay dos particiones contiguas libres, unificarlas(llamar a metodo de unificar particion)" style="shape=note;whiteSpace=wrap;html=1;backgroundOutline=1;darkOpacity=0.05;" vertex="1" parent="KPwIThT03iQtOaX8DPeF-1">
          <mxGeometry x="-350" y="-170" width="140" height="160" as="geometry" />
        </mxCell>
        <mxCell id="KPwIThT03iQtOaX8DPeF-40" value="" style="endArrow=none;dashed=1;html=1;dashPattern=1 3;strokeWidth=2;rounded=0;" edge="1" parent="KPwIThT03iQtOaX8DPeF-1">
          <mxGeometry width="50" height="50" relative="1" as="geometry">
            <mxPoint x="-260" y="60" as="sourcePoint" />
            <mxPoint x="-250" as="targetPoint" />
          </mxGeometry>
        </mxCell>
        <mxCell id="KPwIThT03iQtOaX8DPeF-41" value="no" style="text;html=1;align=center;verticalAlign=middle;resizable=0;points=[];autosize=1;strokeColor=none;fillColor=none;" vertex="1" parent="KPwIThT03iQtOaX8DPeF-1">
          <mxGeometry x="290" y="168" width="40" height="30" as="geometry" />
        </mxCell>
        <mxCell id="KPwIThT03iQtOaX8DPeF-42" value="" style="rounded=0;html=1;jettySize=auto;orthogonalLoop=1;fontSize=11;endArrow=block;endFill=0;endSize=8;strokeWidth=1;shadow=0;labelBackgroundColor=none;edgeStyle=orthogonalEdgeStyle;" edge="1" parent="KPwIThT03iQtOaX8DPeF-1">
          <mxGeometry relative="1" as="geometry">
            <mxPoint x="50" y="109.41000000000005" as="sourcePoint" />
            <mxPoint x="10" y="109.82000000000002" as="targetPoint" />
            <Array as="points">
              <mxPoint x="30" y="109.41000000000005" />
              <mxPoint x="30" y="109.41000000000005" />
            </Array>
          </mxGeometry>
        </mxCell>
        <mxCell id="KPwIThT03iQtOaX8DPeF-43" value="" style="rounded=0;html=1;jettySize=auto;orthogonalLoop=1;fontSize=11;endArrow=block;endFill=0;endSize=8;strokeWidth=1;shadow=0;labelBackgroundColor=none;edgeStyle=orthogonalEdgeStyle;exitX=0.5;exitY=1;exitDx=0;exitDy=0;" edge="1" parent="KPwIThT03iQtOaX8DPeF-1" source="KPwIThT03iQtOaX8DPeF-14">
          <mxGeometry relative="1" as="geometry">
            <mxPoint x="-580" y="150" as="sourcePoint" />
            <mxPoint x="210" y="240" as="targetPoint" />
            <Array as="points">
              <mxPoint x="-440" y="240" />
            </Array>
          </mxGeometry>
        </mxCell>
        <mxCell id="KPwIThT03iQtOaX8DPeF-44" value="" style="rounded=0;html=1;jettySize=auto;orthogonalLoop=1;fontSize=11;endArrow=block;endFill=0;endSize=8;strokeWidth=1;shadow=0;labelBackgroundColor=none;edgeStyle=orthogonalEdgeStyle;" edge="1" parent="KPwIThT03iQtOaX8DPeF-1">
          <mxGeometry relative="1" as="geometry">
            <mxPoint x="294.17" y="30" as="targetPoint" />
            <mxPoint x="294.17" y="-10" as="sourcePoint" />
          </mxGeometry>
        </mxCell>
        <mxCell id="KPwIThT03iQtOaX8DPeF-45" value="Estrategia Firs fit" style="strokeWidth=2;html=1;shape=mxgraph.flowchart.start_1;whiteSpace=wrap;" vertex="1" parent="KPwIThT03iQtOaX8DPeF-1">
          <mxGeometry x="248.5" y="-180" width="100" height="60" as="geometry" />
        </mxCell>
        <mxCell id="KPwIThT03iQtOaX8DPeF-46" value="unificar particiones(las particiones contiguas libres la concatena)" style="rounded=1;whiteSpace=wrap;html=1;fontSize=12;glass=0;strokeWidth=1;shadow=0;" vertex="1" parent="KPwIThT03iQtOaX8DPeF-1">
          <mxGeometry x="-330" y="80" width="130" height="80" as="geometry" />
        </mxCell>
        <mxCell id="KPwIThT03iQtOaX8DPeF-47" value="" style="rounded=0;html=1;jettySize=auto;orthogonalLoop=1;fontSize=11;endArrow=block;endFill=0;endSize=8;strokeWidth=1;shadow=0;labelBackgroundColor=none;edgeStyle=orthogonalEdgeStyle;" edge="1" parent="KPwIThT03iQtOaX8DPeF-1">
          <mxGeometry relative="1" as="geometry">
            <mxPoint x="-340" y="114.29000000000005" as="sourcePoint" />
            <mxPoint x="-380" y="114.70000000000002" as="targetPoint" />
            <Array as="points">
              <mxPoint x="-360" y="114.29000000000005" />
              <mxPoint x="-360" y="114.29000000000005" />
            </Array>
          </mxGeometry>
        </mxCell>
        <mxCell id="KPwIThT03iQtOaX8DPeF-48" value="ponemos la particion en estado &quot;libre&quot;" style="rounded=1;whiteSpace=wrap;html=1;fontSize=12;glass=0;strokeWidth=1;shadow=0;" vertex="1" parent="KPwIThT03iQtOaX8DPeF-1">
          <mxGeometry x="-130" y="95" width="120" height="40" as="geometry" />
        </mxCell>
        <mxCell id="KPwIThT03iQtOaX8DPeF-49" value="" style="rounded=0;html=1;jettySize=auto;orthogonalLoop=1;fontSize=11;endArrow=block;endFill=0;endSize=8;strokeWidth=1;shadow=0;labelBackgroundColor=none;edgeStyle=orthogonalEdgeStyle;" edge="1" parent="KPwIThT03iQtOaX8DPeF-1">
          <mxGeometry relative="1" as="geometry">
            <mxPoint x="-140" y="114.29000000000005" as="sourcePoint" />
            <mxPoint x="-180" y="114.70000000000002" as="targetPoint" />
            <Array as="points">
              <mxPoint x="-160" y="114.29000000000005" />
              <mxPoint x="-160" y="114.29000000000005" />
            </Array>
          </mxGeometry>
        </mxCell>
        <mxCell id="KPwIThT03iQtOaX8DPeF-50" style="edgeStyle=orthogonalEdgeStyle;rounded=0;orthogonalLoop=1;jettySize=auto;html=1;exitX=0.5;exitY=1;exitDx=0;exitDy=0;" edge="1" parent="KPwIThT03iQtOaX8DPeF-1" source="KPwIThT03iQtOaX8DPeF-9" target="KPwIThT03iQtOaX8DPeF-9">
          <mxGeometry relative="1" as="geometry" />
        </mxCell>
        <mxCell id="KPwIThT03iQtOaX8DPeF-51" value="esperar otro ciclo" style="strokeWidth=2;html=1;shape=mxgraph.flowchart.terminator;whiteSpace=wrap;" vertex="1" parent="KPwIThT03iQtOaX8DPeF-1">
          <mxGeometry x="138.5" y="520" width="110" height="70" as="geometry" />
        </mxCell>
        <mxCell id="KPwIThT03iQtOaX8DPeF-52" value="" style="rounded=0;html=1;jettySize=auto;orthogonalLoop=1;fontSize=11;endArrow=block;endFill=0;endSize=8;strokeWidth=1;shadow=0;labelBackgroundColor=none;edgeStyle=orthogonalEdgeStyle;" edge="1" parent="KPwIThT03iQtOaX8DPeF-1">
          <mxGeometry relative="1" as="geometry">
            <mxPoint x="580" y="360" as="sourcePoint" />
            <mxPoint x="650" y="360" as="targetPoint" />
          </mxGeometry>
        </mxCell>
        <mxCell id="KPwIThT03iQtOaX8DPeF-53" value="" style="rounded=0;html=1;jettySize=auto;orthogonalLoop=1;fontSize=11;endArrow=block;endFill=0;endSize=8;strokeWidth=1;shadow=0;labelBackgroundColor=none;edgeStyle=orthogonalEdgeStyle;" edge="1" parent="KPwIThT03iQtOaX8DPeF-1">
          <mxGeometry relative="1" as="geometry">
            <mxPoint x="745.0799999999999" y="390" as="sourcePoint" />
            <mxPoint x="744.5799999999999" y="420" as="targetPoint" />
            <Array as="points" />
          </mxGeometry>
        </mxCell>
        <mxCell id="KPwIThT03iQtOaX8DPeF-54" value="" style="rounded=0;html=1;jettySize=auto;orthogonalLoop=1;fontSize=11;endArrow=block;endFill=0;endSize=8;strokeWidth=1;shadow=0;labelBackgroundColor=none;edgeStyle=orthogonalEdgeStyle;" edge="1" parent="KPwIThT03iQtOaX8DPeF-1">
          <mxGeometry relative="1" as="geometry">
            <mxPoint x="749.29" y="680" as="sourcePoint" />
            <mxPoint x="749.29" y="720" as="targetPoint" />
            <Array as="points" />
          </mxGeometry>
        </mxCell>
        <mxCell id="KPwIThT03iQtOaX8DPeF-55" value="" style="rounded=0;html=1;jettySize=auto;orthogonalLoop=1;fontSize=11;endArrow=block;endFill=0;endSize=8;strokeWidth=1;shadow=0;labelBackgroundColor=none;edgeStyle=orthogonalEdgeStyle;" edge="1" parent="KPwIThT03iQtOaX8DPeF-1">
          <mxGeometry relative="1" as="geometry">
            <mxPoint x="749.29" y="770" as="sourcePoint" />
            <mxPoint x="749.29" y="810" as="targetPoint" />
            <Array as="points" />
          </mxGeometry>
        </mxCell>
        <mxCell id="KPwIThT03iQtOaX8DPeF-56" value="en el instante de tiempo sumo FE&amp;nbsp;" style="rounded=1;whiteSpace=wrap;html=1;fontSize=12;glass=0;strokeWidth=1;shadow=0;" vertex="1" parent="KPwIThT03iQtOaX8DPeF-1">
          <mxGeometry x="128.5" y="428" width="120" height="40" as="geometry" />
        </mxCell>
        <mxCell id="KPwIThT03iQtOaX8DPeF-57" value="" style="rounded=0;html=1;jettySize=auto;orthogonalLoop=1;fontSize=11;endArrow=block;endFill=0;endSize=8;strokeWidth=1;shadow=0;labelBackgroundColor=none;edgeStyle=orthogonalEdgeStyle;" edge="1" parent="KPwIThT03iQtOaX8DPeF-1">
          <mxGeometry relative="1" as="geometry">
            <mxPoint x="198.5" y="480" as="sourcePoint" />
            <mxPoint x="198.5" y="520" as="targetPoint" />
            <Array as="points" />
          </mxGeometry>
        </mxCell>
        <mxCell id="-ysFZ6HfMYuBqx7Ft2fC-0" value="Otra opcion menos eficiente es recorrer todo la lista de particiones original, e ir comparando con algun criterio cual es la que mejor se ajusta." style="shape=note;whiteSpace=wrap;html=1;backgroundOutline=1;darkOpacity=0.05;" vertex="1" parent="KPwIThT03iQtOaX8DPeF-1">
          <mxGeometry x="1000" y="75" width="280" height="180" as="geometry" />
        </mxCell>
      </root>
    </mxGraphModel>
  </diagram>
</mxfile>
